<svg width="595" height="842" viewBox="0 0 595 842" fill="none" xmlns="http://www.w3.org/2000/svg">
<rect width="595" height="842" fill="black"/>
<path d="M215.788 460.552C215.141 460.552 214.495 460.52 213.848 460.455C213.201 460.455 212.587 460.423 212.005 460.358H211.811C211.358 460.293 210.518 460.196 209.289 460.067C208.125 460.002 206.864 459.873 205.506 459.679C204.148 459.485 202.984 459.194 202.014 458.806C201.044 458.418 200.527 457.933 200.462 457.351C200.397 457.028 200.624 456.866 201.141 456.866C201.658 456.801 201.982 456.769 202.111 456.769C203.792 456.769 205.441 456.866 207.058 457.06L209.677 457.351C209.612 456.963 209.515 456.607 209.386 456.284C209.321 455.961 209.289 455.67 209.289 455.411C209.289 455.152 209.257 454.926 209.192 454.732C209.192 454.473 209.192 454.215 209.192 453.956C209.192 451.175 209.806 448.007 211.035 444.45C212.264 440.829 213.848 437.078 215.788 433.198C217.793 429.318 219.927 425.535 222.19 421.849C224.453 418.098 226.684 414.736 228.883 411.761C231.082 408.722 232.989 406.297 234.606 404.486C233.765 404.421 232.925 404.389 232.084 404.389C231.308 404.389 230.467 404.389 229.562 404.389C227.881 404.389 225.876 404.454 223.548 404.583C221.22 404.648 219.248 404.939 217.631 405.456C216.984 405.65 216.338 405.844 215.691 406.038C215.044 406.232 214.365 406.329 213.654 406.329C213.589 406.329 213.395 406.329 213.072 406.329C212.749 406.264 212.587 406.135 212.587 405.941C212.458 404.712 213.04 403.71 214.333 402.934C215.626 402.093 217.178 401.447 218.989 400.994C220.864 400.477 222.643 400.121 224.324 399.927C226.07 399.733 227.331 399.636 228.107 399.636C229.982 399.636 232.44 399.765 235.479 400.024C238.583 400.283 241.816 400.735 245.179 401.382C248.606 402.029 251.872 402.934 254.976 404.098C258.08 405.197 260.634 406.652 262.639 408.463C264.708 410.209 265.872 412.311 266.131 414.768C266.325 416.708 265.808 418.422 264.579 419.909C263.35 421.332 261.734 422.593 259.729 423.692C257.724 424.791 255.558 425.761 253.23 426.602C250.902 427.443 248.671 428.186 246.537 428.833C244.468 429.48 242.786 430.126 241.493 430.773C243.562 431.29 245.567 432.228 247.507 433.586C249.447 434.879 251.064 436.464 252.357 438.339C253.715 440.15 254.491 442.154 254.685 444.353C254.879 446.293 254.135 448.104 252.454 449.785C250.837 451.466 248.606 452.986 245.761 454.344C242.98 455.637 239.844 456.769 236.352 457.739C232.86 458.644 229.303 459.323 225.682 459.776C222.125 460.293 218.827 460.552 215.788 460.552ZM222.966 430.579H225.294C226.458 430.579 228.172 430.385 230.435 429.997C232.763 429.544 235.35 428.93 238.195 428.154C241.105 427.378 244.047 426.473 247.022 425.438C249.997 424.403 252.713 423.304 255.17 422.14C257.692 420.911 259.697 419.65 261.184 418.357C262.736 416.999 263.512 415.641 263.512 414.283C263.512 412.925 262.801 411.729 261.378 410.694C260.02 409.659 258.242 408.786 256.043 408.075C253.909 407.299 251.646 406.685 249.253 406.232C246.86 405.715 244.629 405.359 242.56 405.165C240.555 404.906 239.003 404.777 237.904 404.777C238.163 405.1 238.421 405.456 238.68 405.844C238.939 406.232 239.1 406.652 239.165 407.105V407.299C239.165 407.816 239.003 408.237 238.68 408.56C235.899 412.117 233.054 415.641 230.144 419.133C227.234 422.625 224.841 426.44 222.966 430.579ZM212.393 457.448C215.368 457.448 218.569 457.189 221.996 456.672C225.423 456.155 228.818 455.443 232.181 454.538C235.544 453.568 238.583 452.469 241.299 451.24C244.08 449.947 246.278 448.556 247.895 447.069C249.576 445.517 250.417 443.868 250.417 442.122C250.417 440.57 249.867 439.212 248.768 438.048C247.733 436.884 246.408 435.946 244.791 435.235C243.174 434.459 241.525 433.909 239.844 433.586C238.163 433.198 236.708 433.004 235.479 433.004C234.121 433.004 232.698 433.23 231.211 433.683C229.788 434.071 228.463 434.491 227.234 434.944C226.005 435.397 225.003 435.623 224.227 435.623C223.58 435.623 223.031 435.267 222.578 434.556C222.125 433.78 221.899 433.133 221.899 432.616C220.412 434.944 218.924 437.466 217.437 440.182C215.95 442.833 214.721 445.614 213.751 448.524C212.781 451.434 212.328 454.409 212.393 457.448ZM275.904 459.873C275.322 459.873 274.643 459.614 273.867 459.097C273.155 458.58 272.541 457.998 272.024 457.351C271.506 456.64 271.248 455.993 271.248 455.411C271.248 454.441 271.603 453.148 272.315 451.531C273.026 449.85 273.834 448.201 274.74 446.584C275.71 444.967 276.453 443.771 276.971 442.995C276.065 443.771 274.901 445.032 273.479 446.778C272.121 448.459 270.633 450.27 269.017 452.21C267.465 454.085 265.945 455.702 264.458 457.06C263.035 458.418 261.806 459.097 260.772 459.097C259.349 459.097 258.185 458.612 257.28 457.642C256.439 456.607 256.019 455.379 256.019 453.956C256.019 452.016 256.568 449.947 257.668 447.748C258.767 445.485 260.19 443.318 261.936 441.249C263.746 439.115 265.686 437.175 267.756 435.429C269.89 433.683 271.959 432.293 273.964 431.258C276.033 430.223 277.876 429.706 279.493 429.706C281.239 429.706 282.661 430.126 283.761 430.967C284.86 431.743 285.41 432.939 285.41 434.556C285.41 434.815 285.345 435.3 285.216 436.011C285.151 436.722 284.925 437.078 284.537 437.078C284.343 437.078 284.019 436.787 283.567 436.205C283.179 435.623 282.629 435.041 281.918 434.459C281.206 433.877 280.301 433.586 279.202 433.586C277.391 433.586 275.483 434.265 273.479 435.623C271.539 436.916 269.663 438.598 267.853 440.667C266.042 442.672 264.458 444.741 263.1 446.875C261.742 449.009 260.707 450.852 259.996 452.404C259.802 452.857 259.608 453.342 259.414 453.859C259.284 454.376 259.22 454.894 259.22 455.411C259.22 455.993 259.381 456.284 259.705 456.284C260.028 456.284 260.707 455.928 261.742 455.217C262.841 454.506 263.617 453.988 264.07 453.665C266.333 452.048 268.467 450.205 270.472 448.136C272.541 446.067 274.384 443.933 276.001 441.734C276.518 441.023 277.003 440.311 277.456 439.6C277.908 438.889 278.361 438.21 278.814 437.563C279.137 437.11 279.46 436.884 279.784 436.884C280.495 436.884 281.174 437.369 281.821 438.339C282.532 439.309 282.888 440.15 282.888 440.861C282.888 441.184 282.823 441.378 282.694 441.443C282.629 441.508 282.435 441.702 282.112 442.025C281.142 442.995 280.172 444.353 279.202 446.099C278.296 447.845 277.488 449.623 276.777 451.434C276.13 453.18 275.645 454.667 275.322 455.896C275.257 456.09 275.192 456.349 275.128 456.672C275.128 456.931 275.289 457.028 275.613 456.963C276.259 456.769 277.294 456.058 278.717 454.829C280.204 453.536 281.788 452.081 283.47 450.464C285.216 448.783 286.768 447.231 288.126 445.808C289.548 444.385 290.486 443.383 290.939 442.801C291.068 442.672 291.197 442.542 291.327 442.413C291.521 442.219 291.715 442.122 291.909 442.122C292.361 442.122 292.588 442.348 292.588 442.801C292.588 443.06 292.07 443.836 291.036 445.129C290.001 446.358 288.708 447.813 287.156 449.494C285.604 451.111 284.019 452.727 282.403 454.344C280.786 455.896 279.363 457.222 278.135 458.321C276.971 459.356 276.227 459.873 275.904 459.873Z" fill="white"/>
<path d="M323.384 449.591C325.324 449.074 327.426 448.944 329.689 449.203C331.952 449.462 333.925 450.108 335.606 451.143C337.287 452.178 338.419 453.6 339.001 455.411C339.648 457.222 339.26 459.388 337.837 461.91C337.126 461.975 335.671 462.201 333.472 462.589C331.338 462.977 328.816 463.397 325.906 463.85C323.061 464.303 320.021 464.723 316.788 465.111C313.619 465.499 310.645 465.725 307.864 465.79C301.462 466.049 297.905 465.305 297.194 463.559C294.672 457.933 297.453 451.046 305.536 442.898C307.67 440.829 309.642 438.953 311.453 437.272C313.264 435.526 314.719 434.039 315.818 432.81C316.982 431.581 317.402 430.676 317.079 430.094C315.85 429.835 315.107 429.641 314.848 429.512C314.395 429.189 313.264 428.93 311.453 428.736C309.707 428.477 308.349 427.863 307.379 426.893C306.474 425.858 306.086 424.694 306.215 423.401C306.409 422.043 307.056 420.685 308.155 419.327C309.319 417.904 310.871 416.676 312.811 415.641C314.751 414.606 316.82 413.733 319.019 413.022C321.282 412.311 323.578 411.729 325.906 411.276C329.786 410.435 334.377 409.853 339.68 409.53C340.391 409.53 340.876 409.789 341.135 410.306C341.458 410.759 341.749 411.276 342.008 411.858C342.267 412.375 342.59 412.86 342.978 413.313C343.431 413.701 344.304 413.83 345.597 413.701C346.89 413.507 347.796 414.057 348.313 415.35C348.895 416.579 349.057 418.131 348.798 420.006C348.539 421.881 347.925 423.821 346.955 425.826C345.985 427.766 344.724 429.318 343.172 430.482C335.412 438.242 330.562 442.995 328.622 444.741L323.384 449.591ZM301.656 451.434C301.721 451.369 301.721 451.369 301.656 451.434C301.591 451.499 301.494 451.563 301.365 451.628C301.43 451.628 301.527 451.563 301.656 451.434ZM373.589 449.591C375.529 449.074 377.631 448.944 379.894 449.203C382.157 449.462 384.13 450.108 385.811 451.143C387.492 452.178 388.624 453.6 389.206 455.411C389.853 457.222 389.465 459.388 388.042 461.91C387.331 461.975 385.876 462.201 383.677 462.589C381.543 462.977 379.021 463.397 376.111 463.85C373.266 464.303 370.226 464.723 366.993 465.111C363.824 465.499 360.85 465.725 358.069 465.79C351.667 466.049 348.11 465.305 347.399 463.559C344.877 457.933 347.658 451.046 355.741 442.898C357.875 440.829 359.847 438.953 361.658 437.272C363.469 435.526 364.924 434.039 366.023 432.81C367.187 431.581 367.607 430.676 367.284 430.094C366.055 429.835 365.312 429.641 365.053 429.512C364.6 429.189 363.469 428.93 361.658 428.736C359.912 428.477 358.554 427.863 357.584 426.893C356.679 425.858 356.291 424.694 356.42 423.401C356.614 422.043 357.261 420.685 358.36 419.327C359.524 417.904 361.076 416.676 363.016 415.641C364.956 414.606 367.025 413.733 369.224 413.022C371.487 412.311 373.783 411.729 376.111 411.276C379.991 410.435 384.582 409.853 389.885 409.53C390.596 409.53 391.081 409.789 391.34 410.306C391.663 410.759 391.954 411.276 392.213 411.858C392.472 412.375 392.795 412.86 393.183 413.313C393.636 413.701 394.509 413.83 395.802 413.701C397.095 413.507 398.001 414.057 398.518 415.35C399.1 416.579 399.262 418.131 399.003 420.006C398.744 421.881 398.13 423.821 397.16 425.826C396.19 427.766 394.929 429.318 393.377 430.482C385.617 438.242 380.767 442.995 378.827 444.741L373.589 449.591ZM351.861 451.434C351.926 451.369 351.926 451.369 351.861 451.434C351.796 451.499 351.699 451.563 351.57 451.628C351.635 451.628 351.732 451.563 351.861 451.434Z" fill="white"/>
</svg>
